# xmcd
#
# Track frame offsets:
#	150
#	13767
#	26612
#	39317
#	49690
#	66225
#	76702
#	87380
#	98870
#	111687
#	124705
#	138245
#	149492
#	163632
#	179415
#	194202
#	204567
#	214772
#	228247
#	238465
#	246102
#	257682
#	266830
#	278962
#	289832
#	300060
#	327390
#	339015
#	352675
#	362785
#
# Disc length: 4982 seconds
#
# Revision: 1
# Processed by: cddbd v1.5.2PL0 Copyright (c) Steve Scherf et al.
# Submitted via: audiograbber 1.83.01
#
DISCID=c613741e
DTITLE=Wilma Lee and Stoney Cooper - Big Midnight Special CD4
DYEAR=2007
DGENRE=Country
TTITLE0=Doin' My Time
TTITLE1=Have Faith In Me
TTITLE2=Matthew Twenty-Four
TTITLE3=Six More Miles
TTITLE4=Teardrops Falling In The Snow
TTITLE5=I'm Reading Your Letter Again
TTITLE6=When God Comes And Gathers His Jewels
TTITLE7=Singing Waterfall
TTITLE8=Thirty Pieces Of Silver
TTITLE9=At The First Fall Of Snow
TTITLE10=Philadelphia Lawyer
TTITLE11=On The Evening Train
TTITLE12=Help Me Understand
TTITLE13=The Legend Of The Dogwood Tree
TTITLE14=Every Hour And Every Day
TTITLE15=Satisfied
TTITLE16=There's A Higher Power
TTITLE17=Keep Your Eyes On Jesus
TTITLE18=Family Bible
TTITLE19=The Black Sheep Returned To The Fold
TTITLE20=The Way Worn Traveler
TTITLE21=Glory Land March
TTITLE22=Wandering Soul
TTITLE23=This World Can't Stand Long
TTITLE24=When My Time Comes To Go
TTITLE25=The Story Of The Three Nails
TTITLE26=I Couldn't Care Less
TTITLE27=Big John's Wife
TTITLE28=This Train
TTITLE29=Pirate King
EXTD=
EXTT0=
EXTT1=
EXTT2=
EXTT3=
EXTT4=
EXTT5=
EXTT6=
EXTT7=
EXTT8=
EXTT9=
EXTT10=
EXTT11=
EXTT12=
EXTT13=
EXTT14=
EXTT15=
EXTT16=
EXTT17=
EXTT18=
EXTT19=
EXTT20=
EXTT21=
EXTT22=
EXTT23=
EXTT24=
EXTT25=
EXTT26=
EXTT27=
EXTT28=
EXTT29=
PLAYORDER=
